<mxfile host="app.diagrams.net" modified="2022-03-12T05:55:52.471Z" agent="5.0 (Windows NT 10.0; Win64; x64) AppleWebKit/537.36 (KHTML, like Gecko) Chrome/99.0.4844.51 Safari/537.36" etag="ioX48e794zfSxYPWxPg0" version="17.1.2" type="github">
  <diagram id="mN8X3N3-INGx9ivBpKrq" name="Page-1">
    <mxGraphModel dx="868" dy="450" grid="1" gridSize="8" guides="1" tooltips="1" connect="1" arrows="1" fold="1" page="1" pageScale="1" pageWidth="3300" pageHeight="4681" math="0" shadow="0">
      <root>
        <mxCell id="0" />
        <mxCell id="1" parent="0" />
        <mxCell id="a_AnPkz0Hrt3L4z4_nPz-8" style="edgeStyle=orthogonalEdgeStyle;rounded=0;orthogonalLoop=1;jettySize=auto;html=1;" edge="1" parent="1" source="a_AnPkz0Hrt3L4z4_nPz-1" target="a_AnPkz0Hrt3L4z4_nPz-5">
          <mxGeometry relative="1" as="geometry" />
        </mxCell>
        <mxCell id="a_AnPkz0Hrt3L4z4_nPz-1" value="Start" style="rounded=1;whiteSpace=wrap;html=1;" vertex="1" parent="1">
          <mxGeometry x="360" y="80" width="120" height="60" as="geometry" />
        </mxCell>
        <mxCell id="a_AnPkz0Hrt3L4z4_nPz-12" value="" style="edgeStyle=orthogonalEdgeStyle;rounded=0;orthogonalLoop=1;jettySize=auto;html=1;" edge="1" parent="1" source="a_AnPkz0Hrt3L4z4_nPz-5" target="a_AnPkz0Hrt3L4z4_nPz-11">
          <mxGeometry relative="1" as="geometry" />
        </mxCell>
        <mxCell id="a_AnPkz0Hrt3L4z4_nPz-14" value="" style="edgeStyle=orthogonalEdgeStyle;rounded=0;orthogonalLoop=1;jettySize=auto;html=1;" edge="1" parent="1" source="a_AnPkz0Hrt3L4z4_nPz-5" target="a_AnPkz0Hrt3L4z4_nPz-13">
          <mxGeometry relative="1" as="geometry" />
        </mxCell>
        <mxCell id="a_AnPkz0Hrt3L4z4_nPz-5" value="Es divisible entre 4?&lt;br&gt;" style="rhombus;whiteSpace=wrap;html=1;" vertex="1" parent="1">
          <mxGeometry x="355" y="210" width="130" height="130" as="geometry" />
        </mxCell>
        <mxCell id="a_AnPkz0Hrt3L4z4_nPz-11" value="No es un a単o biciesto" style="whiteSpace=wrap;html=1;" vertex="1" parent="1">
          <mxGeometry x="140" y="245" width="120" height="60" as="geometry" />
        </mxCell>
        <mxCell id="a_AnPkz0Hrt3L4z4_nPz-18" value="" style="edgeStyle=orthogonalEdgeStyle;rounded=0;orthogonalLoop=1;jettySize=auto;html=1;" edge="1" parent="1" source="a_AnPkz0Hrt3L4z4_nPz-13" target="a_AnPkz0Hrt3L4z4_nPz-17">
          <mxGeometry relative="1" as="geometry" />
        </mxCell>
        <mxCell id="a_AnPkz0Hrt3L4z4_nPz-21" value="" style="edgeStyle=orthogonalEdgeStyle;rounded=0;orthogonalLoop=1;jettySize=auto;html=1;" edge="1" parent="1" source="a_AnPkz0Hrt3L4z4_nPz-13" target="a_AnPkz0Hrt3L4z4_nPz-20">
          <mxGeometry relative="1" as="geometry" />
        </mxCell>
        <mxCell id="a_AnPkz0Hrt3L4z4_nPz-13" value="Es divisible entre 100?" style="rhombus;whiteSpace=wrap;html=1;" vertex="1" parent="1">
          <mxGeometry x="510" y="360" width="130" height="130" as="geometry" />
        </mxCell>
        <mxCell id="a_AnPkz0Hrt3L4z4_nPz-15" value="NO" style="text;html=1;align=center;verticalAlign=middle;resizable=0;points=[];autosize=1;strokeColor=none;fillColor=none;" vertex="1" parent="1">
          <mxGeometry x="295" y="240" width="30" height="20" as="geometry" />
        </mxCell>
        <mxCell id="a_AnPkz0Hrt3L4z4_nPz-16" value="Si" style="text;html=1;align=center;verticalAlign=middle;resizable=0;points=[];autosize=1;strokeColor=none;fillColor=none;" vertex="1" parent="1">
          <mxGeometry x="505" y="240" width="30" height="20" as="geometry" />
        </mxCell>
        <mxCell id="a_AnPkz0Hrt3L4z4_nPz-17" value="Es un a単o biciesto" style="whiteSpace=wrap;html=1;" vertex="1" parent="1">
          <mxGeometry x="305" y="395" width="120" height="60" as="geometry" />
        </mxCell>
        <mxCell id="a_AnPkz0Hrt3L4z4_nPz-19" value="No" style="text;html=1;align=center;verticalAlign=middle;resizable=0;points=[];autosize=1;strokeColor=none;fillColor=none;" vertex="1" parent="1">
          <mxGeometry x="464" y="390" width="24" height="24" as="geometry" />
        </mxCell>
        <mxCell id="a_AnPkz0Hrt3L4z4_nPz-25" value="" style="edgeStyle=orthogonalEdgeStyle;rounded=0;orthogonalLoop=1;jettySize=auto;html=1;" edge="1" parent="1" source="a_AnPkz0Hrt3L4z4_nPz-20" target="a_AnPkz0Hrt3L4z4_nPz-24">
          <mxGeometry relative="1" as="geometry" />
        </mxCell>
        <mxCell id="a_AnPkz0Hrt3L4z4_nPz-27" value="" style="edgeStyle=orthogonalEdgeStyle;rounded=0;orthogonalLoop=1;jettySize=auto;html=1;" edge="1" parent="1" source="a_AnPkz0Hrt3L4z4_nPz-20" target="a_AnPkz0Hrt3L4z4_nPz-26">
          <mxGeometry relative="1" as="geometry" />
        </mxCell>
        <mxCell id="a_AnPkz0Hrt3L4z4_nPz-20" value="Es divisible entre 400?" style="rhombus;whiteSpace=wrap;html=1;" vertex="1" parent="1">
          <mxGeometry x="696" y="520" width="130" height="130" as="geometry" />
        </mxCell>
        <mxCell id="a_AnPkz0Hrt3L4z4_nPz-22" value="Si" style="text;html=1;align=center;verticalAlign=middle;resizable=0;points=[];autosize=1;strokeColor=none;fillColor=none;" vertex="1" parent="1">
          <mxGeometry x="696" y="390" width="24" height="24" as="geometry" />
        </mxCell>
        <mxCell id="a_AnPkz0Hrt3L4z4_nPz-24" value="Es un a単o biciesto" style="whiteSpace=wrap;html=1;" vertex="1" parent="1">
          <mxGeometry x="911" y="555" width="120" height="60" as="geometry" />
        </mxCell>
        <mxCell id="a_AnPkz0Hrt3L4z4_nPz-26" value="No es un a単o biciesto" style="whiteSpace=wrap;html=1;" vertex="1" parent="1">
          <mxGeometry x="491" y="555" width="120" height="60" as="geometry" />
        </mxCell>
        <mxCell id="a_AnPkz0Hrt3L4z4_nPz-28" value="No" style="text;html=1;align=center;verticalAlign=middle;resizable=0;points=[];autosize=1;strokeColor=none;fillColor=none;" vertex="1" parent="1">
          <mxGeometry x="640" y="550" width="24" height="24" as="geometry" />
        </mxCell>
        <mxCell id="a_AnPkz0Hrt3L4z4_nPz-29" value="Si" style="text;html=1;align=center;verticalAlign=middle;resizable=0;points=[];autosize=1;strokeColor=none;fillColor=none;" vertex="1" parent="1">
          <mxGeometry x="848" y="550" width="24" height="24" as="geometry" />
        </mxCell>
      </root>
    </mxGraphModel>
  </diagram>
</mxfile>
